<?xml version="1.0" encoding="UTF-8"?>
<svg width="60px" height="58px" viewBox="0 0 60 58" version="1.1" xmlns="http://www.w3.org/2000/svg" xmlns:xlink="http://www.w3.org/1999/xlink">
    <!-- Generator: Sketch 45.2 (43514) - http://www.bohemiancoding.com/sketch -->
    <title>Shape</title>
    <desc>Created with Sketch.</desc>
    <defs></defs>
    <g id="Page-1" stroke="none" stroke-width="1" fill="none" fill-rule="evenodd">
        <g id="Desktop-HD" transform="translate(-690.000000, -508.000000)" fill-rule="nonzero" fill="#1E88E5">
            <g id="Group-10" transform="translate(388.000000, 393.000000)">
                <g id="Group-5" transform="translate(0.000000, 59.000000)">
                    <g id="Group-9" transform="translate(232.000000, 0.000000)">
                        <path d="M78.79,56.79 C73.36,62.22 70,69.72 70,78 C70,86.28 73.36,93.78 78.79,99.21 L83.02,94.98 C78.67,90.66 76,84.66 76,78 C76,71.37 78.67,65.34 83.02,61.02 L78.79,56.79 L78.79,56.79 Z M121.21,56.79 L116.98,61.02 C121.33,65.34 124,71.37 124,78 C124,84.66 121.33,90.66 116.98,94.98 L121.21,99.21 C126.64,93.78 130,86.28 130,78 C130,69.72 126.64,62.22 121.21,56.79 L121.21,56.79 Z M87.28,65.28 C84.01,68.55 82,73.05 82,78 C82,82.95 84.01,87.45 87.28,90.72 L91.51,86.49 C89.35,84.33 88,81.33 88,78 C88,74.67 89.35,71.67 91.51,69.51 L87.28,65.28 L87.28,65.28 Z M112.72,65.28 L108.49,69.51 C110.65,71.67 112,74.67 112,78 C112,81.33 110.65,84.33 108.49,86.49 L112.72,90.72 C115.99,87.45 118,82.95 118,78 C118,73.05 115.99,68.55 112.72,65.28 L112.72,65.28 Z M100,72 C96.6862915,72 94,74.6862915 94,78 C94,81.3137085 96.6862915,84 100,84 C103.313708,84 106,81.3137085 106,78 C106,74.6862915 103.313708,72 100,72 L100,72 Z M97,90 L97,102 L94,102 C92.3431458,102 91,103.343146 91,105 L70,105 L70,111 L91,111 C91,112.656854 92.3431458,114 94,114 L106,114 C107.656854,114 109,112.656854 109,111 L130,111 L130,105 L109,105 C109,103.343146 107.656854,102 106,102 L103,102 L103,90 L97,90 Z" id="Shape"></path>
                    </g>
                </g>
            </g>
        </g>
    </g>
</svg>