<?xml version="1.0" encoding="utf-8"?>
<!-- Generator: Adobe Illustrator 21.0.0, SVG Export Plug-In . SVG Version: 6.00 Build 0)  -->
<svg version="1.1" id="Layer_1" xmlns="http://www.w3.org/2000/svg" xmlns:xlink="http://www.w3.org/1999/xlink" x="0px" y="0px"
	 viewBox="0 0 542 380" style="enable-background:new 0 0 542 380;" xml:space="preserve">
<style type="text/css">
	.st0{fill:#212121;}
	.st1{fill:#434343;}
	.st2{fill:url(#SVGID_1_);}
	.st3{fill:#E0E0E0;stroke:url(#SVGID_2_);stroke-miterlimit:10;}
	.st4{fill:#E0E0E0;stroke:url(#SVGID_3_);stroke-miterlimit:10;}
	.st5{fill:#FFFFFF;}
	.st6{fill:#F27726;}
</style>
<g>
	<g>
		<rect class="st0" width="542" height="380"/>
		<rect x="139" y="208.6" class="st1" width="271.5" height="21.2"/>
		<linearGradient id="SVGID_1_" gradientUnits="userSpaceOnUse" x1="214.0237" y1="219.4559" x2="305.6852" y2="219.4559">
			<stop  offset="0" style="stop-color:#434343"/>
			<stop  offset="1" style="stop-color:#616261"/>
		</linearGradient>
		<polyline class="st2" points="214,229.8 272.2,229.8 272.2,247 305.7,219.5 272.2,191.9 272.2,209.1 214,209.1 		"/>
		<linearGradient id="SVGID_2_" gradientUnits="userSpaceOnUse" x1="210.1377" y1="228.2659" x2="210.1377" y2="228.2659">
			<stop  offset="0" style="stop-color:#BDBDBD"/>
			<stop  offset="1" style="stop-color:#9E9D9E"/>
		</linearGradient>
		<path class="st3" d="M210.1,228.3"/>
		<linearGradient id="SVGID_3_" gradientUnits="userSpaceOnUse" x1="210.1377" y1="210.1152" x2="210.1377" y2="210.1152">
			<stop  offset="0" style="stop-color:#BDBDBD"/>
			<stop  offset="1" style="stop-color:#9E9D9E"/>
		</linearGradient>
		<path class="st4" d="M210.1,210.1"/>
	</g>
	<g id="Page-1_2_">
		<g id="fulllogo-greytext-orangebody-greymoons-_x28_1_x29__2_" transform="translate(-1.000000, 0.000000)">
			<g id="logo.svg_2_">
				<g id="Canvas_2_">
					<g id="logo_2_">
						<g id="Group_2_" transform="translate(480.136401, 64.271493)">
							<g id="g_4_">
								<g id="path_24_" transform="translate(0.000000, 58.875566)">
									<g id="path0-fill_2_">
										<g id="path0_fill-link_2_" transform="translate(0.087603, 0.140294)">
											<path id="path0_fill_2_" class="st5" d="M-263.7-7.4c0,4-0.3,5.3-1.1,6.2c-0.9,0.8-2,1.3-3.2,1.3l0.3,2.4
												c1.9,0,3.6-0.6,5-1.9c1.4-1.5,1.9-3.6,1.9-6.8v-15h-3L-263.7-7.4L-263.7-7.4L-263.7-7.4z"/>
										</g>
									</g>
								</g>
								<g id="path_11_" transform="translate(155.045296, 56.837104)">
									<g id="path1-fill_2_">
										<g id="path1_fill-link_2_" transform="translate(1.562453, 1.799842)">
											<path id="path1_fill_2_" class="st5" d="M-398.2-8.9c0,1.7,0,3.2,0.1,4.5h-2.6l-0.2-2.7h-0.1c-0.5,0.9-1.3,1.7-2.3,2.3
												c-0.9,0.5-2,0.8-3.1,0.8c-2.6,0-5.6-1.4-5.6-7.2v-9.7h3v9.2c0,3.1,0.9,5.3,3.6,5.3c0.8,0,1.7-0.3,2.4-0.8
												c0.7-0.5,1.2-1.2,1.5-1.9c0.2-0.5,0.3-1,0.3-1.5v-10.2h3L-398.2-8.9L-398.2-8.9L-398.2-8.9z"/>
										</g>
									</g>
								</g>
								<g id="path_10_" transform="translate(390.013322, 53.479638)">
									<g id="path2-fill_2_">
										<g id="path2_fill-link_2_" transform="translate(1.706458, 0.231425)">
											<path id="path2_fill_2_" class="st5" d="M-627.7-10.6c0-2.1-0.1-3.8-0.1-5.4h2.7l0.1,2.8h0.1c0.6-1,1.4-1.8,2.4-2.4
												c1-0.6,2.2-0.8,3.3-0.8c3.9,0,6.9,3.4,6.9,8.4c0,5.9-3.6,8.9-7.4,8.9c-1,0-2-0.2-2.8-0.6c-0.9-0.5-1.6-1.1-2.2-2h-0.1v9
												h-2.9L-627.7-10.6L-627.7-10.6L-627.7-10.6z M-624.8-6.2c0,0.4,0.1,0.8,0.1,1.2c0.2,1,0.8,1.9,1.6,2.5
												c0.8,0.6,1.8,1,2.8,1c3.1,0,4.9-2.6,4.9-6.4c0-3.3-1.7-6.1-4.8-6.1c-1,0-2.1,0.4-2.9,1.1c-0.8,0.7-1.4,1.6-1.6,2.6
												c-0.1,0.4-0.2,0.8-0.2,1.2V-6.2L-624.8-6.2L-624.8-6.2z"/>
										</g>
									</g>
								</g>
								<g id="path_9_" transform="translate(606.740726, 56.837104)">
									<g id="path3-fill_2_">
										<g id="path3_fill-link_2_" transform="translate(0.751226, 1.989299)">
											<path id="path3_fill_2_" class="st5" d="M-822.9-21.1l3.6,9.8c0.4,1.1,0.8,2.4,1,3.4h0.1c0.3-1,0.6-2.3,1-3.4l3.2-9.7
												h3.1l-4.4,11.8c-2.1,5.7-3.6,8.6-5.6,10.3c-1,1-2.3,1.6-3.6,1.9l-0.7-2.5c0.9-0.3,1.8-0.8,2.6-1.5
												c1.1-0.9,1.9-2.1,2.5-3.3c0.1-0.2,0.2-0.5,0.2-0.7c0-0.3-0.1-0.5-0.2-0.8l-6-15.2L-822.9-21.1L-822.9-21.1L-822.9-21.1z"
												/>
										</g>
									</g>
								</g>
								<g id="path_8_" transform="translate(822.748104, 0.000000)">
									<g id="path4-fill_2_">
										<g id="path4_fill-link_2_" transform="translate(1.464050, 0.378914)">
											<path id="path4_fill_2_" class="st5" d="M-1019.8,32.6v4.7h4.2v2.3h-4.2v8.9c0,2,0.6,3.2,2.2,3.2c0.6,0,1.2-0.1,1.7-0.2
												l0.1,2.3c-0.8,0.3-1.7,0.4-2.6,0.4c-0.6,0-1.2-0.1-1.7-0.3c-0.6-0.2-1-0.6-1.5-1c-0.8-0.9-1.1-2.4-1.1-4.3v-9h-2.5v-2.3
												h2.5v-4L-1019.8,32.6L-1019.8,32.6z"/>
										</g>
									</g>
								</g>
								<g id="path_7_" transform="translate(974.433286, 53.479638)">
									<g id="path5-fill_2_">
										<g id="path5_fill-link_2_" transform="translate(0.990034, 0.610339)">
											<path id="path5_fill_2_" class="st5" d="M-1161.3-7.5c0.1,4.1,2.6,5.7,5.6,5.7c1.5,0,3.1-0.2,4.5-0.9l0.5,2.1
												c-1.7,0.7-3.5,1.1-5.4,1c-5,0-8-3.3-8-8.3c0-5,2.9-8.9,7.6-8.9c5.3,0,6.7,4.7,6.7,7.8c0,0.5,0,0.9-0.1,1.4H-1161.3
												L-1161.3-7.5L-1161.3-7.5z M-1152.6-9.7c0-1.9-0.8-4.9-4.1-4.9c-3,0-4.3,2.8-4.5,4.9H-1152.6L-1152.6-9.7L-1152.6-9.7z"
												/>
										</g>
									</g>
								</g>
								<g id="path_6_" transform="translate(1201.961058, 53.479638)">
									<g id="path6-fill_2_">
										<g id="path6_fill-link_2_" transform="translate(1.179640, 0.705068)">
											<path id="path6_fill_2_" class="st5" d="M-1373.2-11.3c0-1.9,0-3.6-0.1-5.2h2.6l0.1,3.2h0.1c0.7-2.2,2.5-3.6,4.5-3.6
												c0.3,0,0.6,0,0.8,0.1v2.8c-0.3-0.1-0.7-0.1-1-0.1c-2.1,0-3.6,1.6-4,3.9c-0.1,0.5-0.1,0.9-0.1,1.4v8.8h-2.9V-11.3
												L-1373.2-11.3z"/>
										</g>
									</g>
								</g>
							</g>
						</g>
						<g id="g_1_">
							<g id="path_5_" transform="translate(293.890039, 0.000000)">
								<g id="path7-fill_2_">
									<g id="path7_fill-link_2_" transform="translate(0.804027, 0.898122)">
										<path id="path7_fill_2_" class="st5" d="M-93.1,93.4c0,0.5-0.1,0.9-0.3,1.3c-0.2,0.4-0.6,0.7-1,0.9
											c-0.4,0.2-0.9,0.3-1.3,0.2c-0.4-0.1-0.9-0.3-1.2-0.6c-0.3-0.3-0.6-0.7-0.7-1.1c-0.1-0.4-0.1-0.9,0.1-1.3
											c0.2-0.4,0.4-0.8,0.8-1.1s0.8-0.4,1.2-0.4c0.6,0,1.2,0.2,1.6,0.6C-93.4,92.2-93.1,92.8-93.1,93.4L-93.1,93.4z"/>
									</g>
								</g>
							</g>
							<g id="path_4_" transform="translate(13.560463, 290.300905)">
								<g id="path8-fill_2_">
									<g id="path8_fill-link_2_" transform="translate(0.895231, 1.129548)">
										<path id="path8_fill_2_" class="st6" d="M173.9-170.2c-6.1,0-11.3-2.2-14.1-5.5c1,2.9,2.9,5.5,5.4,7.3
											c2.5,1.8,5.5,2.8,8.6,2.8s6.1-1,8.6-2.8c2.5-1.8,4.4-4.4,5.4-7.3C185.2-172.4,180-170.2,173.9-170.2L173.9-170.2z"/>
									</g>
								</g>
							</g>
							<g id="path_3_" transform="translate(13.560463, 39.929864)">
								<g id="path9-fill_2_">
									<g id="path9_fill-link_2_" transform="translate(0.800427, 0.470045)">
										<path id="path9_fill_2_" class="st6" d="M174,59.5c6.1,0,11.3,2.2,14.1,5.5c-1-2.9-2.9-5.5-5.4-7.3
											c-2.5-1.8-5.5-2.8-8.6-2.8s-6.1,1-8.6,2.8c-2.5,1.8-4.4,4.4-5.4,7.3C162.7,61.7,168,59.5,174,59.5L174,59.5z"/>
									</g>
								</g>
							</g>
							<g id="path_2_" transform="translate(13.560463, 401.936652)">
								<g id="path10-fill_2_">
									<g id="path10_fill-link_2_" transform="translate(1.464050, 1.557624)">
										<path id="path10_fill_2_" class="st5" d="M165-275.9c0,0.6-0.1,1.1-0.4,1.6c-0.3,0.5-0.7,0.9-1.2,1.1
											c-0.5,0.2-1.1,0.3-1.6,0.2c-0.6-0.1-1.1-0.3-1.5-0.7s-0.7-0.9-0.8-1.4c-0.1-0.6-0.1-1.1,0.1-1.7c0.2-0.5,0.5-1,1-1.3
											c0.5-0.3,1-0.5,1.6-0.6c0.8,0,1.5,0.2,2.1,0.8S165-276.7,165-275.9L165-275.9L165-275.9z"/>
									</g>
								</g>
							</g>
							<g id="path_1_" transform="translate(0.000000, 45.325792)">
								<g id="path11-fill_2_">
									<g id="path11_fill-link_2_" transform="translate(1.372847, 0.568371)">
										<path id="path11_fill_2_" class="st5" d="M173.6,53.2c-0.3,0-0.7-0.1-0.9-0.2c-0.3-0.2-0.5-0.4-0.7-0.7s-0.2-0.6-0.1-1
											c0.1-0.3,0.2-0.6,0.4-0.9c0.2-0.2,0.5-0.4,0.8-0.5c0.3-0.1,0.7-0.1,1,0.1c0.3,0.1,0.6,0.3,0.8,0.6
											c0.2,0.3,0.3,0.6,0.3,0.9c0,0.4-0.1,0.9-0.4,1.2C174.5,53,174.1,53.2,173.6,53.2L173.6,53.2L173.6,53.2z"/>
									</g>
								</g>
							</g>
						</g>
					</g>
				</g>
			</g>
			<path id="jupyterlab_2_" class="st6" d="M322.1,118.5h3V94.3h-3V118.5z M342.6,118.5c-0.2-1.1-0.3-2.5-0.3-4v-6.2
				c0-3.3-1.2-6.8-6.3-6.8c-2.1,0-4.1,0.6-5.4,1.5l0.7,2c1.2-0.8,2.8-1.2,4.3-1.2c3.4,0,3.8,2.5,3.8,3.8v0.3c-6.4,0-9.9,2.2-9.9,6.1
				c0,2.4,1.7,4.7,5.1,4.7c2.4,0,4.1-1.2,5.1-2.5h0.1l0.2,2.1H342.6z M339.4,113c0,0.3-0.1,0.6-0.2,1c-0.5,1.4-1.8,2.8-4,2.8
				c-1.5,0-2.8-0.9-2.8-2.9c0-3.2,3.7-3.8,7-3.7V113z M350.2,118.5l0.1-2.7h0.1c1.2,2.2,3.1,3.1,5.5,3.1c3.7,0,7.4-2.9,7.4-8.8
				c0-5-2.9-8.4-7-8.4c-2.7,0-4.6,1.2-5.6,3h-0.1V94.3h-3v20c0,1.5-0.1,3.1-0.1,4.3H350.2z M350.8,108.9c0-0.5,0.1-0.9,0.2-1.2
				c0.6-2.3,2.5-3.7,4.6-3.7c3.2,0,4.9,2.8,4.9,6.1c0,3.8-1.9,6.3-5,6.3c-2.2,0-3.9-1.4-4.5-3.5c-0.1-0.3-0.1-0.7-0.1-1.1V108.9z"/>
		</g>
	</g>
</g>
</svg>
