<?xml version="1.0" encoding="utf-8"?>
<!-- Generator: Adobe Illustrator 23.0.3, SVG Export Plug-In . SVG Version: 6.00 Build 0)  -->
<svg version="1.1" id="Layer_1" xmlns:figma="http://www.figma.com/figma/ns"
	 xmlns="http://www.w3.org/2000/svg" xmlns:xlink="http://www.w3.org/1999/xlink" x="0px" y="0px" viewBox="0 0 44 51"
	 style="enable-background:new 0 0 44 51;" xml:space="preserve">
<style type="text/css">
	.st0{fill:#4E4E4E;}
	.st1{fill:#767677;}
	.st2{fill:#F37726;}
	.st3{fill:#9E9E9E;}
	.st4{fill:#616262;}
</style>
<g id="g" figma:type="group">
	<path id="path0_fill" class="st0" d="M2.3,26.8c0,1.6-0.1,2.1-0.4,2.4c-0.4,0.3-0.8,0.5-1.3,0.5l0.1,0.9c0.7,0,1.5-0.3,2-0.7
		c0.3-0.4,0.5-0.8,0.7-1.3c0.1-0.5,0.2-0.9,0.1-1.4v-5.9H2.3V26.8L2.3,26.8z"/>
	<path id="path1_fill" class="st0" d="M11.2,26.1c0,0.7,0,1.3,0.1,1.8h-1.1l-0.1-1.1c-0.2,0.4-0.5,0.7-0.9,0.9
		c-0.4,0.2-0.8,0.3-1.2,0.3c-1,0-2.3-0.6-2.3-2.8v-3.8h1.2V25c0,1.2,0.4,2.1,1.5,2.1c0.2,0,0.4,0,0.6-0.1s0.4-0.2,0.5-0.4
		c0.2-0.2,0.3-0.3,0.4-0.5c0.1-0.2,0.1-0.4,0.1-0.6v-4h1.2L11.2,26.1L11.2,26.1z"/>
	<path id="path2_fill" class="st0" d="M13.4,23.5c0-0.8,0-1.5-0.1-2.1h1.1l0.1,1.1c0.2-0.4,0.6-0.7,1-1c0.4-0.2,0.9-0.3,1.3-0.3
		c1.6,0,2.8,1.3,2.8,3.3c0,2.3-1.4,3.5-3,3.5c-0.4,0-0.8-0.1-1.1-0.2c-0.4-0.2-0.7-0.4-0.9-0.8l0,0v3.6h-1.2V23.5L13.4,23.5z
		 M14.6,25.3c0,0.2,0,0.3,0.1,0.5c0.1,0.4,0.3,0.7,0.7,1c0.3,0.2,0.7,0.4,1.1,0.4c1.3,0,2-1,2-2.5c0-1.3-0.7-2.4-1.9-2.4
		c-0.5,0-1,0.3-1.3,0.6s-0.5,0.8-0.6,1.3V25.3z"/>
	<path id="path3_fill" class="st0" d="M21.7,21.4l1.4,3.8c0.2,0.4,0.3,0.9,0.4,1.3c0.1-0.4,0.3-0.9,0.4-1.4l1.3-3.8h1.3L24.8,26
		c-0.9,2.2-1.4,3.4-2.3,4.1c-0.4,0.4-0.9,0.6-1.5,0.8l-0.3-1c0.4-0.1,0.7-0.3,1-0.6c0.4-0.4,0.8-0.8,1-1.3c0-0.1,0.1-0.2,0.1-0.3
		c0-0.1,0-0.2-0.1-0.3l-2.4-6L21.7,21.4L21.7,21.4z"/>
	<path id="path4_fill" class="st0" d="M29.7,19.5v1.9h1.7v0.9h-1.7v3.5c0,0.8,0.2,1.3,0.9,1.3c0.2,0,0.5,0,0.7-0.1l0.1,0.9
		C31,28,30.7,28.1,30.3,28c-0.2,0-0.5,0-0.7-0.1c-0.2-0.1-0.4-0.2-0.6-0.4c-0.4-0.5-0.5-1.1-0.5-1.7v-3.6h-1v-0.9h1v-1.6L29.7,19.5z
		"/>
	<path id="path5_fill" class="st0" d="M33.6,24.9c0,0.3,0,0.6,0.1,0.9c0.1,0.3,0.3,0.5,0.5,0.8c0.2,0.2,0.5,0.4,0.8,0.5
		c0.3,0.1,0.6,0.1,0.9,0.1c0.6,0,1.2-0.1,1.8-0.3l0.2,0.9c-0.7,0.3-1.4,0.4-2.2,0.4c-0.4,0-0.9,0-1.3-0.2c-0.4-0.2-0.8-0.4-1.1-0.7
		c-0.3-0.3-0.5-0.7-0.7-1.1c-0.1-0.4-0.2-0.8-0.2-1.3c0-2,1.2-3.5,3.1-3.5c2.1,0,2.7,1.9,2.7,3.1c0,0.2,0,0.4,0,0.6L33.6,24.9
		L33.6,24.9z M37.1,24c0-0.2,0-0.5-0.1-0.7c-0.1-0.2-0.2-0.4-0.3-0.6c-0.2-0.2-0.4-0.3-0.6-0.4c-0.2-0.1-0.5-0.2-0.7-0.2
		c-0.5,0-0.9,0.3-1.3,0.6c-0.3,0.4-0.5,0.8-0.5,1.3H37.1z"/>
	<path id="path6_fill" class="st0" d="M40,23.4c0-0.8,0-1.4-0.1-2H41v1.3h0.1c0.1-0.4,0.3-0.7,0.7-1c0.3-0.3,0.7-0.4,1.1-0.4
		c0.1,0,0.2,0,0.3,0v1.1c-0.1,0-0.3,0-0.4,0c-0.4,0-0.8,0.2-1.1,0.5c-0.3,0.3-0.5,0.7-0.5,1.1c0,0.2-0.1,0.4-0.1,0.6v3.5H40L40,23.4
		L40,23.4z"/>
</g>
<g figma:type="group">
	<path id="path7_fill" class="st1" d="M39.5,3.5c0,0.6-0.1,1.2-0.4,1.7c-0.3,0.5-0.8,0.9-1.3,1.2c-0.5,0.3-1.1,0.4-1.7,0.3
		c-0.6-0.1-1.1-0.3-1.6-0.7C34,5.6,33.7,5,33.6,4.4c-0.1-0.6-0.1-1.2,0.1-1.8s0.6-1.1,1.1-1.4c0.5-0.4,1.1-0.6,1.7-0.6
		c0.4,0,0.8,0,1.2,0.2c0.4,0.1,0.7,0.3,1,0.6c0.3,0.3,0.5,0.6,0.7,0.9S39.5,3.1,39.5,3.5L39.5,3.5z"/>
	<path id="path8_fill" class="st2" d="M21.9,38.4c-8,0-15.1-2.9-18.7-7.1c1.4,3.8,4,7.1,7.3,9.4c3.3,2.3,7.3,3.6,11.4,3.6
		c4.1,0,8-1.2,11.4-3.6c3.3-2.3,5.9-5.6,7.3-9.4C37,35.5,30,38.4,21.9,38.4z"/>
	<path id="path9_fill" class="st2" d="M21.9,10.8c8,0,15.1,2.9,18.7,7.1c-1.4-3.8-4-7.1-7.3-9.4C30,6.1,26,4.9,21.9,4.9
		c-4.1,0-8,1.2-11.4,3.6c-3.3,2.3-5.9,5.6-7.3,9.4C6.9,13.6,13.9,10.8,21.9,10.8z"/>
	<path id="path10_fill" class="st3" d="M10.9,46.7c0,0.8-0.1,1.5-0.5,2.2C10,49.5,9.4,50,8.7,50.3c-0.7,0.3-1.4,0.4-2.2,0.3
		c-0.7-0.1-1.4-0.4-2-0.9c-0.6-0.5-1-1.2-1.1-1.9c-0.2-0.7-0.1-1.5,0.1-2.2c0.3-0.7,0.7-1.3,1.3-1.8c0.6-0.4,1.3-0.7,2.1-0.7
		c0.5,0,1,0,1.5,0.2c0.5,0.2,0.9,0.4,1.3,0.8s0.7,0.7,0.9,1.2C10.7,45.7,10.8,46.2,10.9,46.7L10.9,46.7z"/>
	<path id="path11_fill" class="st4" d="M4.1,9.8c-0.4,0-0.9-0.1-1.2-0.3c-0.4-0.2-0.7-0.6-0.8-1C1.9,8.1,1.8,7.7,1.9,7.3
		s0.3-0.8,0.6-1.1c0.3-0.3,0.7-0.5,1.1-0.6C4,5.4,4.4,5.4,4.8,5.6c0.4,0.2,0.8,0.4,1,0.8c0.3,0.3,0.4,0.8,0.4,1.2
		c0,0.6-0.2,1.2-0.6,1.6C5.3,9.5,4.7,9.8,4.1,9.8z"/>
</g>
</svg>
