<?xml version="1.0" encoding="utf-8"?>
<!-- Generator: Adobe Illustrator 19.2.1, SVG Export Plug-In . SVG Version: 6.00 Build 0)  -->
<svg version="1.1" id="Layer_1" xmlns="http://www.w3.org/2000/svg" xmlns:xlink="http://www.w3.org/1999/xlink" x="0px" y="0px"
	 viewBox="0 0 24 24" style="enable-background:new 0 0 24 24;" xml:space="preserve">
<style type="text/css">
	.st0{fill:#616161;}
</style>
<path class="st0" d="M4,1h16c0.6,0,1,0.4,1,1v4c0,0.6-0.4,1-1,1H8.8l-2-2H7V3H5v0.2L3.2,1.4C3.4,1.1,3.7,1,4,1 M22,22.7L20.7,24
	l-1-1H4c-0.6,0-1-0.4-1-1v-4c0-0.6,0.4-1,1-1h9.7l-2-2H4c-0.6,0-1-0.4-1-1v-4c0-0.6,0.4-1,1-1h1.7l-2-2.1C3.4,6.8,3.2,6.6,3,6.3
	l-2-2L2.3,3L22,22.7 M20,9c0.6,0,1,0.4,1,1v4c0,0.6-0.4,1-1,1h-3.2l-6-6H20 M20,17c0.6,0,1,0.4,1,1v1.2L18.8,17H20 M9,5h1V3H9V5
	 M9,13h0.7L9,12.3V13 M9,21h1v-2H9V21 M5,11v2h2v-2H5 M5,19v2h2v-2H5z"/>
</svg>
