<?xml version="1.0" encoding="UTF-8"?>
<svg width="69px" height="74px" viewBox="0 0 69 74" version="1.1" xmlns="http://www.w3.org/2000/svg" xmlns:xlink="http://www.w3.org/1999/xlink">
    <!-- Generator: Sketch 45.2 (43514) - http://www.bohemiancoding.com/sketch -->
    <title>Group 7</title>
    <desc>Created with Sketch.</desc>
    <defs></defs>
    <g id="Page-1" stroke="none" stroke-width="1" fill="none" fill-rule="evenodd">
        <g id="Desktop-HD" transform="translate(-913.000000, -508.000000)">
            <g id="Group-10" transform="translate(388.000000, 393.000000)">
                <g id="Group-5" transform="translate(0.000000, 59.000000)">
                    <g id="Group-8" transform="translate(464.000000, 0.000000)">
                        <g id="Group-7" transform="translate(64.000000, 56.000000)">
                            <g id="access-point-network-(1)" transform="translate(6.000000, 0.000000)" fill-rule="nonzero" fill="#9E9E9E">
                                <path d="M8.79,0.79 C3.36,6.22 0,13.72 0,22 C0,30.28 3.36,37.78 8.79,43.21 L13.02,38.98 C8.67,34.66 6,28.66 6,22 C6,15.37 8.67,9.34 13.02,5.02 L8.79,0.79 L8.79,0.79 Z M51.21,0.79 L46.98,5.02 C51.33,9.34 54,15.37 54,22 C54,28.66 51.33,34.66 46.98,38.98 L51.21,43.21 C56.64,37.78 60,30.28 60,22 C60,13.72 56.64,6.22 51.21,0.79 L51.21,0.79 Z M17.28,9.28 C14.01,12.55 12,17.05 12,22 C12,26.95 14.01,31.45 17.28,34.72 L21.51,30.49 C19.35,28.33 18,25.33 18,22 C18,18.67 19.35,15.67 21.51,13.51 L17.28,9.28 L17.28,9.28 Z M42.72,9.28 L38.49,13.51 C40.65,15.67 42,18.67 42,22 C42,25.33 40.65,28.33 38.49,30.49 L42.72,34.72 C45.99,31.45 48,26.95 48,22 C48,17.05 45.99,12.55 42.72,9.28 L42.72,9.28 Z M30,16 C26.6862915,16 24,18.6862915 24,22 C24,25.3137085 26.6862915,28 30,28 C33.3137085,28 36,25.3137085 36,22 C36,18.6862915 33.3137085,16 30,16 L30,16 Z M27,34 L27,46 L24,46 C22.3431458,46 21,47.3431458 21,49 L0,49 L0,55 L21,55 C21,56.6568542 22.3431458,58 24,58 L36,58 C37.6568542,58 39,56.6568542 39,55 L60,55 L60,49 L39,49 C39,47.3431458 37.6568542,46 36,46 L33,46 L33,34 L27,34 Z" id="Shape"></path>
                            </g>
                            <g id="plus-(1)" transform="translate(0.000000, 44.000000)">
                                <rect id="Rectangle-2" fill="#FAFAFA" x="-3" y="0" width="30" height="30"></rect>
                                <polygon id="Shape" fill="#9E9E9E" fill-rule="nonzero" points="23 11.4285714 14.4285714 11.4285714 14.4285714 20 11.5714286 20 11.5714286 11.4285714 3 11.4285714 3 8.57142857 11.5714286 8.57142857 11.5714286 0 14.4285714 0 14.4285714 8.57142857 23 8.57142857"></polygon>
                            </g>
                        </g>
                    </g>
                </g>
            </g>
        </g>
    </g>
</svg>