<svg width="349" height="226" viewBox="0 0 349 226" fill="none" xmlns="http://www.w3.org/2000/svg">
<rect x="78.5061" y="225.72" width="225.28" height="197.465" transform="rotate(-90 78.5061 225.72)" fill="#9D6CFF"/>
<ellipse cx="75.9084" cy="113.08" rx="112.64" ry="75.3484" transform="rotate(-90 75.9084 113.08)" fill="#9D6CFF"/>
<ellipse cx="273.372" cy="113.08" rx="112.64" ry="75.3484" transform="rotate(-90 273.372 113.08)" fill="#9D6CFF"/>
<rect x="95.4714" y="195" width="163.84" height="162.617" transform="rotate(-90 95.4714 195)" fill="#D0B9FE"/>
<ellipse cx="93.3314" cy="113.08" rx="81.92" ry="62.0513" transform="rotate(-90 93.3314 113.08)" fill="#D0B9FE"/>
<ellipse cx="255.948" cy="113.08" rx="81.92" ry="62.0513" transform="rotate(-90 255.948 113.08)" fill="#D0B9FE"/>
<path d="M97.8398 195V117.96C97.8398 112.437 102.317 107.96 107.84 107.96H118.56C124.083 107.96 128.56 112.437 128.56 117.96V195H97.8398Z" fill="#9D6CFF"/>
<path d="M220.72 195V117.96C220.72 112.437 225.197 107.96 230.72 107.96H241.44C246.963 107.96 251.44 112.437 251.44 117.96V195H220.72Z" fill="#9D6CFF"/>
<path d="M159.28 31.1602V108.2C159.28 113.723 163.757 118.2 169.28 118.2H180C185.523 118.2 190 113.723 190 108.2V31.1602L159.28 31.1602Z" fill="#9D6CFF"/>
</svg>
