<svg xmlns="http://www.w3.org/2000/svg" xmlns:xlink="http://www.w3.org/1999/xlink" width="1034.54" height="1034.53" viewBox="0 0 1034.54 1034.53"><defs><radialGradient id="radial-gradient" cx="4502.02" cy="7209.75" r="7.44" gradientTransform="translate(-6690.76 5019.88) rotate(-90)" gradientUnits="userSpaceOnUse"><stop offset="0" stop-color="#616161"/><stop offset="0.05" stop-color="#5a5a5a"/><stop offset="0.27" stop-color="#414141"/><stop offset="0.49" stop-color="#2f2f2f"/><stop offset="0.73" stop-color="#242424"/><stop offset="1" stop-color="#212121"/></radialGradient><linearGradient id="linear-gradient" x1="512.17" y1="520" x2="512.17" y2="504" gradientUnits="userSpaceOnUse"><stop offset="0" stop-color="#bdbdbd"/><stop offset="0.01" stop-color="#bebebe"/><stop offset="0.26" stop-color="#dadada"/><stop offset="0.51" stop-color="#efefef"/><stop offset="0.76" stop-color="#fbfbfb"/><stop offset="1" stop-color="#fff"/></linearGradient><clipPath id="clip-path" transform="translate(6.82 5.86)"><path d="M505.42,508.91h0a7.41,7.41,0,0,1,9.84-3.65h0a7.43,7.43,0,0,1,3.66,9.85h0a7.41,7.41,0,0,1-9.84,3.65h0A7.43,7.43,0,0,1,505.42,508.91Z" style="fill:none"/></clipPath><radialGradient id="radial-gradient-2" cx="4502.27" cy="7209.33" r="14.87" xlink:href="#radial-gradient"/><linearGradient id="linear-gradient-2" x1="511.75" y1="527.75" x2="511.75" y2="495.75" xlink:href="#linear-gradient"/><clipPath id="clip-path-2" transform="translate(6.82 5.86)"><path d="M498.25,505.58h0a14.83,14.83,0,0,1,19.69-7.29h0a14.87,14.87,0,0,1,7.33,19.7h0a14.83,14.83,0,0,1-19.69,7.29h0A14.87,14.87,0,0,1,498.25,505.58Z" style="fill:none"/></clipPath><radialGradient id="radial-gradient-3" cx="4501.96" cy="7209.57" r="22.31" gradientTransform="translate(-6690.77 5019.88) rotate(-90)" xlink:href="#radial-gradient"/><linearGradient id="linear-gradient-3" x1="511.99" y1="536.06" x2="511.99" y2="488.06" xlink:href="#linear-gradient"/><clipPath id="clip-path-3" transform="translate(6.82 5.86)"><path d="M491.73,502.8h0a22.25,22.25,0,0,1,29.53-10.94h0a22.31,22.31,0,0,1,11,29.55h0a22.25,22.25,0,0,1-29.53,10.94h0A22.31,22.31,0,0,1,491.73,502.8Z" style="fill:none"/></clipPath><radialGradient id="radial-gradient-4" cx="4502.02" cy="7209.57" r="29.74" gradientTransform="translate(-6690.77 5019.88) rotate(-90)" xlink:href="#radial-gradient"/><linearGradient id="linear-gradient-4" x1="511.99" y1="544" x2="511.99" y2="480" xlink:href="#linear-gradient"/><clipPath id="clip-path-4" transform="translate(6.82 5.86)"><path d="M485,499.65h0a29.67,29.67,0,0,1,39.38-14.59h0A29.75,29.75,0,0,1,539,524.46h0a29.67,29.67,0,0,1-39.38,14.59h0A29.75,29.75,0,0,1,485,499.65Z" style="fill:none"/></clipPath><radialGradient id="radial-gradient-5" cx="4501.02" cy="7209.57" r="475.88" gradientTransform="translate(-382.39 1080.49) rotate(-90) scale(0.13 0.12)" xlink:href="#radial-gradient"/><linearGradient id="linear-gradient-5" x1="511.99" y1="576" x2="511.99" y2="448" xlink:href="#linear-gradient"/><clipPath id="clip-path-5" transform="translate(6.82 5.86)"><path d="M458,487.31h0a59.34,59.34,0,0,1,78.75-29.18h0A59.5,59.5,0,0,1,566,536.93h0a59.34,59.34,0,0,1-78.75,29.18h0A59.5,59.5,0,0,1,458,487.31Z" style="fill:none"/></clipPath><radialGradient id="radial-gradient-6" cx="4501.02" cy="7209.57" r="475.88" gradientTransform="translate(-1283.59 1643.12) rotate(-90) scale(0.25 0.25)" xlink:href="#radial-gradient"/><linearGradient id="linear-gradient-6" x1="511.99" y1="640" x2="511.99" y2="384" xlink:href="#linear-gradient"/><clipPath id="clip-path-6" transform="translate(6.82 5.86)"><path d="M403.93,462.61h0a118.67,118.67,0,0,1,157.5-58.35h0a119,119,0,0,1,58.62,157.6h0a118.67,118.67,0,0,1-157.5,58.35h0A119,119,0,0,1,403.93,462.61Z" style="fill:none"/></clipPath><radialGradient id="radial-gradient-7" cx="4503.02" cy="7209.57" r="475.88" gradientTransform="translate(-3085.98 2768.37) rotate(-90) scale(0.5 0.5)" xlink:href="#radial-gradient"/><linearGradient id="linear-gradient-7" x1="511.99" y1="767" x2="511.99" y2="255" xlink:href="#linear-gradient"/><clipPath id="clip-path-7" transform="translate(6.82 5.86)"><path d="M295.87,412.22h0C350.47,293,491.51,240.7,610.87,295.52h0c119.36,54.81,171.86,195.93,117.25,315.2h0C673.51,730,532.48,782.24,413.11,727.43h0C293.75,672.61,241.26,531.49,295.87,412.22Z" style="fill:none"/></clipPath><radialGradient id="radial-gradient-8" cx="4502.02" cy="7209.57" r="475.88" gradientTransform="translate(-6690.77 5019.88) rotate(-90)" xlink:href="#radial-gradient"/><linearGradient id="linear-gradient-8" x1="511.99" y1="1024" x2="511.99" y2="0" xlink:href="#linear-gradient"/><clipPath id="clip-path-8" transform="translate(6.82 5.86)"><path d="M79.74,314.45h0C189,75.91,471-28.59,709.75,81h0c238.73,109.63,343.71,391.87,234.5,630.41h0C835,950,553,1054.48,314.24,944.86h0C75.51,835.23-29.48,553,79.74,314.45Z" style="fill:none"/></clipPath></defs><title>icon</title><g id="_16X16" data-name="16X16"><rect x="511.55" y="510.43" width="14.87" height="14.87" rx="7.44" ry="7.44" style="fill:url(#radial-gradient)"/><path d="M512.17,504.56a7.44,7.44,0,0,1,7.44,7.44h0a7.44,7.44,0,0,1-7.44,7.44h0a7.44,7.44,0,0,1-7.44-7.44h0a7.44,7.44,0,0,1,7.44-7.44h0m0-.56a8,8,0,1,0,8,8,8,8,0,0,0-8-8Z" transform="translate(6.82 5.86)" style="fill:url(#linear-gradient)"/><g style="clip-path:url(#clip-path)"><g id="Canvas"><g id="logo"><g id="g"><g id="path"><g id="path8_fill" data-name="path8 fill"><path id="path1_fill" data-name="path1 fill" d="M511.74,517.37a8.39,8.39,0,0,1-6.28-2.69,6.8,6.8,0,0,0,2.36,3.37,6.73,6.73,0,0,0,10.37-3A8.39,8.39,0,0,1,511.74,517.37Z" transform="translate(6.82 5.86)" style="fill:#f37626"/></g></g><g id="path-2" data-name="path"><g id="path9_fill" data-name="path9 fill"><path id="path2_fill" data-name="path2 fill" d="M512.38,506.66a8.39,8.39,0,0,1,6.28,2.69A6.8,6.8,0,0,0,516.3,506a6.73,6.73,0,0,0-10.37,3A8.4,8.4,0,0,1,512.38,506.66Z" transform="translate(6.82 5.86)" style="fill:#f37626"/></g></g></g></g></g><path d="M512.15,520.07a8.08,8.08,0,1,1,8.08-8.08A8.09,8.09,0,0,1,512.15,520.07Zm0-14.81a6.73,6.73,0,1,0,6.73,6.73A6.74,6.74,0,0,0,512.15,505.26Z" transform="translate(6.82 5.86)" style="fill:#212121"/></g><path d="M508.2,509.31h1v4.8h-1Z" transform="translate(6.82 5.86)" style="fill:#efefef"/><path d="M512,514.12l-.06-.33h0a1.2,1.2,0,0,1-.95.41,1,1,0,0,1-1.07-1c0-.86.77-1.27,1.95-1.26v0c0-.18-.09-.43-.6-.43a1.87,1.87,0,0,0-.92.25l-.19-.66a2.74,2.74,0,0,1,1.29-.29,1.29,1.29,0,0,1,1.46,1.43v1.15a5.12,5.12,0,0,0,0,.8Zm-.12-1.56c-.54,0-1,.12-1,.52a.37.37,0,0,0,.41.39.56.56,0,0,0,.54-.38.74.74,0,0,0,0-.18Z" transform="translate(6.82 5.86)" style="fill:#efefef"/><path d="M513.62,514.12c0-.22,0-.62,0-1v-3.81h1v1.89h0a1.17,1.17,0,0,1,1-.47c.79,0,1.38.66,1.37,1.67a1.59,1.59,0,0,1-1.52,1.79,1.1,1.1,0,0,1-1-.53h0l0,.46Zm1.06-1.41a.75.75,0,0,0,0,.18.62.62,0,0,0,.6.49c.44,0,.71-.34.71-.93s-.23-.92-.71-.92a.64.64,0,0,0-.6.51.85.85,0,0,0,0,.19Z" transform="translate(6.82 5.86)" style="fill:#efefef"/></g><g id="_32x32" data-name="32x32"><rect x="503.7" y="502.74" width="29.74" height="29.74" rx="14.87" ry="14.87" style="fill:url(#radial-gradient-2)"/><path d="M511.75,496.88a14.87,14.87,0,0,1,14.87,14.87h0a14.87,14.87,0,0,1-14.87,14.87h0a14.87,14.87,0,0,1-14.87-14.87h0a14.87,14.87,0,0,1,14.87-14.87h0m0-1.13a16,16,0,1,0,16,16,16,16,0,0,0-16-16Z" transform="translate(6.82 5.86)" style="fill:url(#linear-gradient-2)"/><g style="clip-path:url(#clip-path-2)"><g id="Canvas-2" data-name="Canvas"><g id="logo-2" data-name="logo"><g id="g-2" data-name="g"><g id="path-3" data-name="path"><g id="path8_fill-2" data-name="path8 fill"><path id="path1_fill-2" data-name="path1 fill" d="M510.89,522.49c-5.47-.18-10.18-2.33-12.57-5.37a13.59,13.59,0,0,0,4.72,6.75,13.45,13.45,0,0,0,20.73-5.92C521.2,520.82,516.36,522.67,510.89,522.49Z" transform="translate(6.82 5.86)" style="fill:#f37626"/></g></g><g id="path-4" data-name="path"><g id="path9_fill-2" data-name="path9 fill"><path id="path2_fill-2" data-name="path2 fill" d="M512.16,501.07c5.47.18,10.18,2.33,12.57,5.37A13.59,13.59,0,0,0,520,499.7a13.45,13.45,0,0,0-20.73,5.92C501.86,502.75,506.69,500.9,512.16,501.07Z" transform="translate(6.82 5.86)" style="fill:#f37626"/></g></g></g></g></g><path d="M511.71,527.9a16.16,16.16,0,1,1,16.16-16.16A16.18,16.18,0,0,1,511.71,527.9Zm0-29.62a13.46,13.46,0,1,0,13.46,13.46A13.47,13.47,0,0,0,511.71,498.28Z" transform="translate(6.82 5.86)" style="fill:#212121"/></g><path d="M503.81,506.38h2.06V516h-2.06Z" transform="translate(6.82 5.86)" style="fill:#efefef"/><path d="M511.31,516l-.12-.66h0a2.39,2.39,0,0,1-1.9.81,2,2,0,0,1-2.14-2c0-1.72,1.55-2.54,3.89-2.53v-.09c0-.35-.19-.85-1.21-.85a3.74,3.74,0,0,0-1.83.5l-.38-1.33a5.49,5.49,0,0,1,2.58-.58,2.58,2.58,0,0,1,2.92,2.85v2.3a10.23,10.23,0,0,0,.09,1.61Zm-.24-3.12c-1.08,0-1.93.24-1.93,1a.74.74,0,0,0,.81.78,1.13,1.13,0,0,0,1.07-.76,1.47,1.47,0,0,0,0-.35Z" transform="translate(6.82 5.86)" style="fill:#efefef"/><path d="M514.65,516c0-.43.05-1.23.05-2v-7.63h2.06v3.77h0a2.34,2.34,0,0,1,2-.93c1.59,0,2.75,1.31,2.74,3.34,0,2.38-1.52,3.57-3,3.57a2.2,2.2,0,0,1-2-1.07h0l-.08.92Zm2.12-2.81a1.5,1.5,0,0,0,0,.37,1.25,1.25,0,0,0,1.21,1c.88,0,1.42-.68,1.42-1.87,0-1-.46-1.84-1.42-1.84a1.28,1.28,0,0,0-1.21,1,1.7,1.7,0,0,0,0,.38Z" transform="translate(6.82 5.86)" style="fill:#efefef"/></g><g id="_48x48" data-name="48x48"><rect x="496.5" y="495.61" width="44.61" height="44.61" rx="22.31" ry="22.31" style="fill:url(#radial-gradient-3)"/><path d="M512,489.75a22.31,22.31,0,0,1,22.31,22.31h0A22.31,22.31,0,0,1,512,534.37h0a22.31,22.31,0,0,1-22.31-22.31h0A22.31,22.31,0,0,1,512,489.75h0m0-1.69a24,24,0,1,0,24,24,24,24,0,0,0-24-24Z" transform="translate(6.82 5.86)" style="fill:url(#linear-gradient-3)"/><g style="clip-path:url(#clip-path-3)"><g id="Canvas-3" data-name="Canvas"><g id="logo-3" data-name="logo"><g id="g-3" data-name="g"><g id="path-5" data-name="path"><g id="path8_fill-3" data-name="path8 fill"><path id="path1_fill-3" data-name="path1 fill" d="M510.7,528.16c-8.2-.27-15.27-3.5-18.85-8.06a20.39,20.39,0,0,0,7.07,10.12,20.18,20.18,0,0,0,31.1-8.89C526.16,525.66,518.9,528.43,510.7,528.16Z" transform="translate(6.82 5.86)" style="fill:#f37626"/></g></g><g id="path-6" data-name="path"><g id="path9_fill-3" data-name="path9 fill"><path id="path2_fill-3" data-name="path2 fill" d="M512.6,496c8.2.27,15.27,3.5,18.85,8.06A20.39,20.39,0,0,0,524.38,494a20.18,20.18,0,0,0-31.1,8.89C497.15,498.55,504.4,495.78,512.6,496Z" transform="translate(6.82 5.86)" style="fill:#f37626"/></g></g></g></g></g><path d="M511.92,536.28A24.25,24.25,0,1,1,536.17,512,24.27,24.27,0,0,1,511.92,536.28Zm0-44.43A20.18,20.18,0,1,0,532.1,512,20.21,20.21,0,0,0,511.92,491.85Z" transform="translate(6.82 5.86)" style="fill:#212121"/></g><path d="M500.08,504h3.09v14.41h-3.09Z" transform="translate(6.82 5.86)" style="fill:#efefef"/><path d="M511.33,518.41l-.18-1h-.06a3.59,3.59,0,0,1-2.85,1.22,3,3,0,0,1-3.21-3c0-2.58,2.32-3.81,5.84-3.79v-.14c0-.53-.28-1.28-1.81-1.28a5.61,5.61,0,0,0-2.75.75l-.57-2a8.23,8.23,0,0,1,3.87-.87c3.32,0,4.37,1.95,4.37,4.28V516a15.35,15.35,0,0,0,.14,2.41Zm-.37-4.69c-1.63,0-2.89.37-2.89,1.56a1.11,1.11,0,0,0,1.22,1.18,1.69,1.69,0,0,0,1.61-1.14,2.21,2.21,0,0,0,.06-.53Z" transform="translate(6.82 5.86)" style="fill:#efefef"/><path d="M516.34,518.41c0-.65.08-1.85.08-3V504h3.09v5.66h0a3.51,3.51,0,0,1,3-1.4c2.38,0,4.13,2,4.11,5,0,3.57-2.28,5.36-4.56,5.36a3.3,3.3,0,0,1-3-1.6h0l-.12,1.38Zm3.17-4.22a2.25,2.25,0,0,0,.06.55,1.87,1.87,0,0,0,1.81,1.46c1.32,0,2.14-1,2.14-2.8,0-1.54-.69-2.76-2.14-2.76a1.92,1.92,0,0,0-1.81,1.52,2.55,2.55,0,0,0-.06.57Z" transform="translate(6.82 5.86)" style="fill:#efefef"/></g><g id="_64x64" data-name="64x64"><rect x="489.06" y="488.12" width="59.48" height="59.48" rx="29.74" ry="29.74" style="fill:url(#radial-gradient-4)"/><path d="M512,482.26A29.74,29.74,0,0,1,541.73,512h0A29.74,29.74,0,0,1,512,541.74h0A29.74,29.74,0,0,1,482.25,512h0A29.74,29.74,0,0,1,512,482.26h0m0-2.26a32,32,0,1,0,32,32,32,32,0,0,0-32-32Z" transform="translate(6.82 5.86)" style="fill:url(#linear-gradient-4)"/><g style="clip-path:url(#clip-path-4)"><g id="Canvas-4" data-name="Canvas"><g id="logo-4" data-name="logo"><g id="g-4" data-name="g"><g id="path-8" data-name="path"><g id="path8_fill-5" data-name="path8 fill"><path id="path1_fill-4" data-name="path1 fill" d="M510.27,533.47c-10.94-.35-20.36-4.66-25.13-10.75a27.18,27.18,0,0,0,9.43,13.5A26.91,26.91,0,0,0,536,524.37C530.88,530.14,521.21,533.83,510.27,533.47Z" transform="translate(6.82 5.86)" style="fill:#f37626"/></g></g><g id="path-9" data-name="path"><g id="path9_fill-4" data-name="path9 fill"><path id="path2_fill-4" data-name="path2 fill" d="M512.81,490.64c10.94.35,20.36,4.66,25.13,10.75a27.18,27.18,0,0,0-9.43-13.5A26.91,26.91,0,0,0,487,499.74C492.2,494,501.87,490.29,512.81,490.64Z" transform="translate(6.82 5.86)" style="fill:#f37626"/></g></g></g></g></g><path d="M511.9,544.29A32.33,32.33,0,1,1,544.22,512,32.37,32.37,0,0,1,511.9,544.29Zm0-59.24A26.91,26.91,0,1,0,538.81,512,26.94,26.94,0,0,0,511.9,485.05Z" transform="translate(6.82 5.86)" style="fill:#212121"/></g><path d="M496.11,501.25h4.12v19.21h-4.12Z" transform="translate(6.82 5.86)" style="fill:#efefef"/><path d="M511.11,520.46l-.24-1.33h-.08a4.78,4.78,0,0,1-3.8,1.62,4.06,4.06,0,0,1-4.29-4.06c0-3.44,3.09-5.09,7.78-5.06v-.19c0-.7-.38-1.7-2.41-1.7a7.48,7.48,0,0,0-3.66,1l-.76-2.65a11,11,0,0,1,5.15-1.16c4.42,0,5.83,2.6,5.83,5.71v4.6a20.46,20.46,0,0,0,.19,3.22Zm-.49-6.25c-2.17,0-3.85.49-3.85,2.08a1.48,1.48,0,0,0,1.63,1.57,2.25,2.25,0,0,0,2.14-1.52,2.94,2.94,0,0,0,.08-.7Z" transform="translate(6.82 5.86)" style="fill:#efefef"/><path d="M517.79,520.46c.05-.87.11-2.46.11-3.95V501.25H522v7.55h.05a4.68,4.68,0,0,1,4-1.87c3.17,0,5.51,2.62,5.48,6.68,0,4.76-3,7.14-6.08,7.14a4.4,4.4,0,0,1-4-2.14h-.05l-.16,1.84Zm4.23-5.63a3,3,0,0,0,.08.73,2.49,2.49,0,0,0,2.41,1.95c1.76,0,2.85-1.35,2.85-3.73,0-2.06-.92-3.68-2.85-3.68a2.55,2.55,0,0,0-2.41,2,3.41,3.41,0,0,0-.08.76Z" transform="translate(6.82 5.86)" style="fill:#efefef"/></g><g id="_128x128" data-name="128x128"><rect x="459.32" y="458.38" width="118.97" height="118.97" rx="59.48" ry="59.48" style="fill:url(#radial-gradient-5)"/><path d="M512,452.52A59.48,59.48,0,0,1,571.48,512h0A59.48,59.48,0,0,1,512,571.48h0A59.48,59.48,0,0,1,452.51,512h0A59.48,59.48,0,0,1,512,452.52h0m0-4.52a64,64,0,1,0,64,64,64.07,64.07,0,0,0-64-64Z" transform="translate(6.82 5.86)" style="fill:url(#linear-gradient-5)"/><g style="clip-path:url(#clip-path-5)"><g id="Canvas-5" data-name="Canvas"><g id="logo-5" data-name="logo"><g id="g-5" data-name="g"><g id="path-11" data-name="path"><g id="path8_fill-7" data-name="path8 fill"><path id="path1_fill-5" data-name="path1 fill" d="M508.55,554.95c-21.87-.71-40.72-9.33-50.26-21.49a54.36,54.36,0,0,0,18.86,27,53.82,53.82,0,0,0,82.93-23.7C549.78,548.27,530.42,555.66,508.55,554.95Z" transform="translate(6.82 5.86)" style="fill:#f37626"/></g></g><g id="path-12" data-name="path"><g id="path9_fill-5" data-name="path9 fill"><path id="path2_fill-5" data-name="path2 fill" d="M513.63,469.29c21.87.71,40.72,9.33,50.26,21.49a54.36,54.36,0,0,0-18.86-27,53.82,53.82,0,0,0-82.93,23.7C472.4,476,491.76,468.58,513.63,469.29Z" transform="translate(6.82 5.86)" style="fill:#f37626"/></g></g></g></g></g><path d="M511.8,576.58a64.66,64.66,0,1,1,64.66-64.66A64.73,64.73,0,0,1,511.8,576.58Zm0-118.48a53.82,53.82,0,1,0,53.82,53.82A53.88,53.88,0,0,0,511.8,458.1Z" transform="translate(6.82 5.86)" style="fill:#212121"/></g><path d="M480.24,490.51h8.25v38.42h-8.25Z" transform="translate(6.82 5.86)" style="fill:#efefef"/><path d="M510.24,528.92l-.49-2.65h-.16a9.57,9.57,0,0,1-7.59,3.25c-5.37,0-8.57-3.9-8.57-8.12,0-6.87,6.18-10.17,15.57-10.12v-.38c0-1.41-.76-3.41-4.83-3.41a15,15,0,0,0-7.32,2l-1.52-5.3a22,22,0,0,1,10.31-2.33c8.84,0,11.66,5.19,11.66,11.42v9.2a40.93,40.93,0,0,0,.38,6.44Zm-1-12.5c-4.34-.05-7.7,1-7.7,4.17a3,3,0,0,0,3.25,3.14,4.5,4.5,0,0,0,4.29-3,5.89,5.89,0,0,0,.16-1.41Z" transform="translate(6.82 5.86)" style="fill:#efefef"/><path d="M523.59,528.92c.11-1.73.22-4.92.22-7.9V490.51H532v15.1h.11c1.57-2.27,4.34-3.73,8-3.73,6.35,0,11,5.25,11,13.36,0,9.52-6.08,14.28-12.15,14.28a8.81,8.81,0,0,1-8-4.27h-.11l-.33,3.68ZM532,517.67a6,6,0,0,0,.16,1.46A5,5,0,0,0,537,523c3.53,0,5.7-2.71,5.7-7.47,0-4.11-1.84-7.36-5.7-7.36a5.11,5.11,0,0,0-4.83,4.06,6.81,6.81,0,0,0-.16,1.51Z" transform="translate(6.82 5.86)" style="fill:#efefef"/></g><g id="_256x256" data-name="256x256"><rect x="399.84" y="398.89" width="237.94" height="237.94" rx="118.97" ry="118.97" style="fill:url(#radial-gradient-6)"/><path d="M512,393A119,119,0,0,1,631,512h0A119,119,0,0,1,512,631h0A119,119,0,0,1,393,512h0A119,119,0,0,1,512,393h0m0-9A128,128,0,1,0,640,512,128.14,128.14,0,0,0,512,384Z" transform="translate(6.82 5.86)" style="fill:url(#linear-gradient-6)"/><g style="clip-path:url(#clip-path-6)"><g id="Canvas-6" data-name="Canvas"><g id="logo-6" data-name="logo"><g id="g-6" data-name="g"><g id="path-14" data-name="path"><g id="path8_fill-9" data-name="path8 fill"><path id="path1_fill-6" data-name="path1 fill" d="M505.11,597.9c-43.74-1.42-81.44-18.66-100.52-43a108.73,108.73,0,0,0,37.73,54,107.63,107.63,0,0,0,165.87-47.4C587.56,584.54,548.85,599.31,505.11,597.9Z" transform="translate(6.82 5.86)" style="fill:#f37626"/></g></g><g id="path-15" data-name="path"><g id="path9_fill-6" data-name="path9 fill"><path id="path2_fill-6" data-name="path2 fill" d="M515.26,426.57c43.74,1.42,81.44,18.66,100.52,43a108.73,108.73,0,0,0-37.73-54A107.63,107.63,0,0,0,412.19,463C432.81,440,471.52,425.16,515.26,426.57Z" transform="translate(6.82 5.86)" style="fill:#f37626"/></g></g></g></g></g><path d="M511.61,641.17A129.32,129.32,0,1,1,640.92,511.85,129.46,129.46,0,0,1,511.61,641.17Zm0-237A107.64,107.64,0,1,0,619.25,511.85,107.76,107.76,0,0,0,511.61,404.21Z" transform="translate(6.82 5.86)" style="fill:#212121"/></g><path d="M448.48,469H465v76.84H448.48Z" transform="translate(6.82 5.86)" style="fill:#efefef"/><path d="M508.48,545.85l-1-5.3h-.33c-3.47,4.22-8.9,6.49-15.19,6.49-10.74,0-17.14-7.79-17.14-16.23,0-13.74,12.37-20.35,31.14-20.24v-.76c0-2.81-1.52-6.82-9.66-6.82a29.9,29.9,0,0,0-14.65,4l-3-10.61c3.69-2.06,11-4.65,20.61-4.65,17.68,0,23.33,10.39,23.33,22.84V533a81.86,81.86,0,0,0,.76,12.88Zm-2-25c-8.68-.11-15.41,1.95-15.41,8.33,0,4.22,2.82,6.28,6.51,6.28a9,9,0,0,0,8.57-6.06,11.78,11.78,0,0,0,.33-2.81Z" transform="translate(6.82 5.86)" style="fill:#efefef"/><path d="M535.18,545.85c.22-3.46.43-9.85.43-15.8V469H552.1v30.19h.22c3.15-4.55,8.68-7.47,16.06-7.47,12.69,0,22,10.5,21.92,26.73,0,19-12.15,28.57-24.3,28.57-6.18,0-12.15-2.27-15.95-8.55h-.22l-.65,7.36Zm16.93-22.51a12,12,0,0,0,.33,2.92,10,10,0,0,0,9.66,7.79c7.05,0,11.39-5.41,11.39-14.93,0-8.22-3.69-14.72-11.39-14.72a10.21,10.21,0,0,0-9.66,8.12,13.62,13.62,0,0,0-.33,3Z" transform="translate(6.82 5.86)" style="fill:#efefef"/></g><g id="_512x512" data-name="512x512"><rect x="280.87" y="278.92" width="475.88" height="475.88" rx="237.94" ry="237.94" style="fill:url(#radial-gradient-7)"/><path d="M512,273.06c131.41,0,237.94,106.53,237.94,237.94h0c0,131.41-106.53,237.94-237.94,237.94h0c-131.41,0-237.94-106.53-237.94-237.94h0c0-131.41,106.53-237.94,237.94-237.94h0M512,255c-141.16,0-256,114.84-256,256S370.83,767,512,767,768,652.16,768,511,653.15,255,512,255Z" transform="translate(6.82 5.86)" style="fill:url(#linear-gradient-7)"/><g style="clip-path:url(#clip-path-7)"><g id="Canvas-7" data-name="Canvas"><g id="logo-7" data-name="logo"><g id="g-7" data-name="g"><g id="path-17" data-name="path"><g id="path8_fill-11" data-name="path8 fill"><path id="path1_fill-7" data-name="path1 fill" d="M498.23,682.8c-87.48-2.83-162.88-37.31-201-86a217.45,217.45,0,0,0,75.46,108A215.26,215.26,0,0,0,704.38,610C663.13,656.09,585.72,685.63,498.23,682.8Z" transform="translate(6.82 5.86)" style="fill:#f37626"/></g></g><g id="path-18" data-name="path"><g id="path9_fill-7" data-name="path9 fill"><path id="path2_fill-7" data-name="path2 fill" d="M518.53,340.14c87.49,2.83,162.88,37.31,201,86a217.46,217.46,0,0,0-75.46-108,215.26,215.26,0,0,0-331.74,94.79C353.63,366.95,431,337.31,518.53,340.14Z" transform="translate(6.82 5.86)" style="fill:#f37626"/></g></g></g></g></g><path d="M511.22,769.34c-142.61,0-258.63-116-258.63-258.63s116-258.63,258.63-258.63,258.63,116,258.63,258.63S653.83,769.34,511.22,769.34Zm0-473.92c-118.71,0-215.29,96.58-215.29,215.28S392.51,726,511.22,726,726.51,629.41,726.51,510.7,629.93,295.42,511.22,295.42Z" transform="translate(6.82 5.86)" style="fill:#212121"/></g><path d="M385,425h33V578.7H385Z" transform="translate(6.82 5.86)" style="fill:#efefef"/><path d="M505,578.7l-2-10.61h-.65c-6.94,8.44-17.79,13-30.38,13-21.48,0-34.28-15.58-34.28-32.46,0-27.49,24.74-40.69,62.28-40.47v-1.52c0-5.63-3-13.64-19.31-13.64-10.85,0-22.35,3.68-29.29,8l-6.08-21.21c7.38-4.11,21.92-9.31,41.23-9.31,35.37,0,46.65,20.78,46.65,45.67v36.79c0,10.17.44,19.91,1.52,25.76Zm-3.91-50c-17.36-.22-30.81,3.89-30.81,16.67,0,8.44,5.64,12.55,13,12.55a18,18,0,0,0,17.14-12.12,23.55,23.55,0,0,0,.65-5.63Z" transform="translate(6.82 5.86)" style="fill:#efefef"/><path d="M558.37,578.7c.43-6.93.87-19.7.87-31.6V425h33v60.39h.44c6.29-9.09,17.36-14.93,32.11-14.93,25.39,0,44,21,43.83,53.46,0,38.1-24.3,57.14-48.61,57.14-12.37,0-24.3-4.54-31.9-17.1h-.43l-1.3,14.72Zm33.85-45a24,24,0,0,0,.65,5.84c2.17,8.88,9.76,15.59,19.31,15.59,14.1,0,22.78-10.82,22.78-29.87,0-16.45-7.38-29.44-22.78-29.44-8.9,0-17.14,6.71-19.31,16.23a27.25,27.25,0,0,0-.65,6.06Z" transform="translate(6.82 5.86)" style="fill:#efefef"/></g><g id="_1024x1024" data-name="1024x1024"><rect x="42.93" y="41.98" width="951.75" height="951.75" rx="475.88" ry="475.88" style="fill:url(#radial-gradient-8)"/><path d="M512,36.12c262.82,0,475.88,213.06,475.88,475.88h0c0,262.82-213.06,475.88-475.88,475.88h0C249.17,987.88,36.12,774.82,36.12,512h0C36.12,249.18,249.17,36.12,512,36.12h0M512,0C229.67,0,0,229.68,0,512s229.68,512,512,512,512-229.68,512-512S794.31,0,512,0Z" transform="translate(6.82 5.86)" style="fill:url(#linear-gradient-8)"/><g style="clip-path:url(#clip-path-8)"><g id="Canvas-8" data-name="Canvas"><g id="logo-8" data-name="logo"><g id="g-8" data-name="g"><g id="path-20" data-name="path"><g id="path8_fill-13" data-name="path8 fill"><path id="path1_fill-8" data-name="path1 fill" d="M484.47,855.59c-175-5.66-325.76-74.63-402.1-172A434.9,434.9,0,0,0,233.29,899.57,430.53,430.53,0,0,0,896.76,710C814.27,802.17,659.45,861.25,484.47,855.59Z" transform="translate(6.82 5.86)" style="fill:#f37626"/></g></g><g id="path-21" data-name="path"><g id="path9_fill-8" data-name="path9 fill"><path id="path2_fill-8" data-name="path2 fill" d="M525.07,170.28c175,5.66,325.76,74.63,402.1,172A434.91,434.91,0,0,0,776.26,126.3,430.53,430.53,0,0,0,112.79,315.89C195.28,223.9,350.1,164.62,525.07,170.28Z" transform="translate(6.82 5.86)" style="fill:#f37626"/></g></g></g></g></g><path d="M510.45,1028.67c-285.23,0-517.27-232-517.27-517.27S225.23-5.86,510.45-5.86s517.27,232,517.27,517.27S795.68,1028.67,510.45,1028.67Zm0-947.84C273,80.84,79.88,274,79.88,511.41S273,942,510.45,942,941,748.82,941,511.41,747.87,80.84,510.45,80.84Z" transform="translate(6.82 5.86)" style="fill:#212121"/></g><path d="M258,340h66V647.39H258Z" transform="translate(6.82 5.86)" style="fill:#efefef"/><path d="M498,647.39l-3.9-21.21h-1.3c-13.89,16.88-35.59,26-60.76,26-43,0-68.57-31.17-68.57-64.93,0-55,49.47-81.39,124.55-80.95v-3C488,492,481.91,476,449.36,476c-21.7,0-44.7,7.36-58.59,16l-12.15-42.42c14.75-8.22,43.83-18.61,82.46-18.61,70.74,0,93.31,41.56,93.31,91.34v73.59c0,20.34.87,39.82,3,51.51Zm-7.81-100c-34.72-.43-61.63,7.79-61.63,33.33,0,16.88,11.28,25.11,26,25.11,16.49,0,29.95-10.82,34.29-24.24a47.11,47.11,0,0,0,1.3-11.25Z" transform="translate(6.82 5.86)" style="fill:#efefef"/><path d="M604.75,647.39c.87-13.85,1.74-39.39,1.74-63.2V340h66V460.82h.87C685.9,442.64,708,431,737.55,431c50.78,0,88.1,42,87.66,106.92,0,76.19-48.6,114.28-97.21,114.28-24.74,0-48.6-9.09-63.8-34.2h-.87l-2.6,29.44Zm67.7-90a48,48,0,0,0,1.3,11.69c4.34,17.75,19.53,31.17,38.63,31.17,28.21,0,45.57-21.65,45.57-59.74,0-32.9-14.75-58.88-45.57-58.88-17.8,0-34.29,13.42-38.63,32.47a54.49,54.49,0,0,0-1.3,12.12Z" transform="translate(6.82 5.86)" style="fill:#efefef"/></g></svg>