<svg width="183" height="57" viewBox="0 0 183 57" fill="none" xmlns="http://www.w3.org/2000/svg">
<rect x="15.2239" y="49" width="44" height="38.5673" transform="rotate(-90 15.2239 49)" fill="#9D6CFF"/>
<ellipse cx="14.7165" cy="27" rx="22" ry="14.7165" transform="rotate(-90 14.7165 27)" fill="#9D6CFF"/>
<ellipse cx="53.2836" cy="27" rx="22" ry="14.7165" transform="rotate(-90 53.2836 27)" fill="#9D6CFF"/>
<rect x="18.5374" y="43" width="32" height="31.7612" transform="rotate(-90 18.5374 43)" fill="#D0B9FE"/>
<ellipse cx="18.1194" cy="27" rx="16" ry="12.1194" transform="rotate(-90 18.1194 27)" fill="#D0B9FE"/>
<ellipse cx="49.8806" cy="27" rx="16" ry="12.1194" transform="rotate(-90 49.8806 27)" fill="#D0B9FE"/>
<path d="M19 43V28C19 26.8954 19.8954 26 21 26H23C24.1046 26 25 26.8954 25 28V43H19Z" fill="#9D6CFF"/>
<path d="M43 43V28C43 26.8954 43.8954 26 45 26H47C48.1046 26 49 26.8954 49 28V43H43Z" fill="#9D6CFF"/>
<path d="M31 11V26C31 27.1046 31.8954 28 33 28H35C36.1046 28 37 27.1046 37 26V11H31Z" fill="#9D6CFF"/>
<path d="M90.6934 46H83.6865V10.0137H94.624L101.167 38.3096L107.661 10.0137H118.477V46H111.47V21.6592C111.47 20.9593 111.478 19.9827 111.494 18.7295C111.51 17.46 111.519 16.4834 111.519 15.7998L104.707 46H97.4072L90.6445 15.7998C90.6445 16.4834 90.6527 17.46 90.6689 18.7295C90.6852 19.9827 90.6934 20.9593 90.6934 21.6592V46ZM132.051 19.3887V46H124.995V19.3887H132.051ZM132.051 9.79395V16.2148H124.995V9.79395H132.051ZM150.996 41.0439V46.2441L147.7 46.3662C144.412 46.4801 142.166 45.9105 140.962 44.6572C140.181 43.8597 139.79 42.6309 139.79 40.9707V24.5889H136.079V19.6328H139.79V12.2109H146.675V19.6328H150.996V24.5889H146.675V38.6514C146.675 39.7419 146.813 40.4255 147.09 40.7021C147.367 40.9626 148.213 41.0928 149.629 41.0928C149.84 41.0928 150.06 41.0928 150.288 41.0928C150.532 41.0765 150.768 41.0602 150.996 41.0439ZM177.656 22.7578C179.902 25.5736 181.025 28.902 181.025 32.7432C181.025 36.6494 179.902 39.9941 177.656 42.7773C175.41 45.5443 172 46.9277 167.427 46.9277C162.853 46.9277 159.443 45.5443 157.197 42.7773C154.951 39.9941 153.828 36.6494 153.828 32.7432C153.828 28.902 154.951 25.5736 157.197 22.7578C159.443 19.9421 162.853 18.5342 167.427 18.5342C172 18.5342 175.41 19.9421 177.656 22.7578ZM167.402 24.418C165.368 24.418 163.797 25.1423 162.69 26.5908C161.6 28.0231 161.055 30.0739 161.055 32.7432C161.055 35.4124 161.6 37.4714 162.69 38.9199C163.797 40.3685 165.368 41.0928 167.402 41.0928C169.437 41.0928 170.999 40.3685 172.09 38.9199C173.18 37.4714 173.726 35.4124 173.726 32.7432C173.726 30.0739 173.18 28.0231 172.09 26.5908C170.999 25.1423 169.437 24.418 167.402 24.418Z" fill="#9D6CFF"/>
</svg>
